<?xml version="1.0" encoding="utf-8"?>
<!-- Generator: Adobe Illustrator 23.1.0, SVG Export Plug-In . SVG Version: 6.00 Build 0)  -->
<svg version="1.1" id="Layer_1" xmlns="http://www.w3.org/2000/svg" xmlns:xlink="http://www.w3.org/1999/xlink" x="0px" y="0px"
	 viewBox="0 0 512 512" style="enable-background:new 0 0 512 512;" xml:space="preserve">
<style type="text/css">
	.st0{fill:#161414;}
	.st1{fill:#EF1111;}
</style>
<path class="st0" d="M437,75C183-156.7-154,190.6,75,437C329,668.7,666,321.4,437,75z"/>
<path class="st1" d="M31,303.1c3.6-66.5,35.1-95,83-127.9c-4.5-54.6,23.8-105.1,67.6-131.6c-26.7,29.3-30.6,81.5-7.3,114.9
	c43.5-38.3,119.6-38.4,163.2,0c22.9-32.6,19.9-85.1-7.3-114.9c56.1,36.4,65.1,77.7,69.8,135.5c49.7,23.3,79.6,73.1,80.8,124.1
	c-12.4-38.2-56.7-67.6-97.8-63.6c8.9,59.3-28,117.4-81.9,137.1c16,38,64.5,63.4,105.3,54.6c-59.7,30.2-100.5,17.1-152.8-7.6
	c-45.2,31.1-103.4,32-148.4,7.6c40,8.7,89-15.9,105.3-54.6c-54.1-19.7-90.6-77.5-81.9-137.1c-18.6-1.2-37.7,2.8-55,12.7"/>
<g>
	<g>
		<path d="M256,158c-23.2,0-44.5,8.1-61.3,21.6c13.5,11,30.1,18.4,48.3,20.9c4.3,0.6,8.6,0.9,13,0.9c4.4,0,8.7-0.3,13-0.9
			c18.2-2.4,34.7-9.9,48.3-20.9C300.5,166.1,279.2,158,256,158z"/>
	</g>
</g>
<g>
	<g>
		<path d="M202.3,299.5c-1.6-4-3.5-7.9-5.7-11.7s-4.7-7.4-7.3-10.8c-10.9-14.1-25.1-24.5-40.8-30.8c-0.4,3.6-0.6,7.2-0.6,10.9
			c0,41,25.3,76.1,61,90.8C210.8,331.8,208.8,315.1,202.3,299.5z"/>
	</g>
</g>
<g>
	<g>
		<path d="M367.1,246.1c-15.8,6.3-30,16.7-40.8,30.8c-2.6,3.4-5.1,7-7.3,10.8c-2.2,3.8-4.1,7.7-5.7,11.7
			c-6.5,15.7-8.5,32.3-6.6,48.3c35.8-14.6,61-49.8,61-90.8C367.7,253.4,367.5,249.7,367.1,246.1z"/>
	</g>
</g>
</svg>
